<?xml version="1.0" encoding="UTF-8"?>
<svg version="1.1" xmlns="http://www.w3.org/2000/svg" width="369" height="102">
<path d="M0 0 C121.77 0 243.54 0 369 0 C369 33.66 369 67.32 369 102 C247.23 102 125.46 102 0 102 C0 68.34 0 34.68 0 0 Z " fill="#020202" transform="translate(0,0)"/>
<path d="M0 0 C0.76441406 -0.00773438 1.52882812 -0.01546875 2.31640625 -0.0234375 C15.26008045 0.02051386 25.5379989 5.02792517 34.86328125 13.85546875 C44.09552886 23.6298518 47.55090548 34.64380837 47.40234375 47.96484375 C46.38118328 60.06056138 40.84625047 71.47643748 31.95703125 79.7265625 C21.26426047 88.61820558 8.90496517 91.6269376 -4.78076172 90.51611328 C-17.25810925 88.93062613 -26.89858378 82.32383508 -34.75 72.8125 C-42.59769615 62.06577257 -45.0040098 50.39796223 -43.875 37.25 C-41.56879604 25.87088584 -35.00061344 15.46929574 -25.875 8.25 C-17.3843953 2.88294623 -10.04291704 -0.10059683 0 0 Z " fill="#F5F5F5" transform="translate(48.875,4.75)"/>
<path d="M0 0 C5.08039167 2.33010445 9.39656372 5.37729889 11.9375 10.50390625 C14.14118617 17.33726643 13.8909664 25.6645182 11.203125 32.328125 C8.63392726 37.21232424 5.3058511 39.85934803 0.515625 42.578125 C-3.68709962 43.6532406 -6.78565449 43.67500558 -11.171875 43.265625 C-13.811875 41.615625 -16.451875 39.965625 -19.171875 38.265625 C-19.501875 46.185625 -19.831875 54.105625 -20.171875 62.265625 C-23.801875 62.265625 -27.431875 62.265625 -31.171875 62.265625 C-31.171875 41.805625 -31.171875 21.345625 -31.171875 0.265625 C-27.541875 0.265625 -23.911875 0.265625 -20.171875 0.265625 C-19.841875 1.585625 -19.511875 2.905625 -19.171875 4.265625 C-18.69878906 3.9046875 -18.22570312 3.54375 -17.73828125 3.171875 C-11.86756224 -0.94792781 -6.9487749 -2.34958576 0 0 Z " fill="#F2F1F3" transform="translate(347.171875,33.734375)"/>
<path d="M0 0 C0.2784375 0.58136719 0.556875 1.16273437 0.84375 1.76171875 C7.82906294 15.28396306 21.866852 21.36556467 34.63085938 28.48242188 C48.59087672 36.38631508 48.59087672 36.38631508 53 43 C53.78580272 49.95996698 53.78580272 49.95996698 50.875 53.8125 C44.98244454 58.29596611 40.42062799 59.53252389 33.1875 59.4375 C32.38578369 59.42992676 31.58406738 59.42235352 30.75805664 59.41455078 C24.71139379 59.2459212 20.13771926 58.31832572 15 55 C14.24589844 54.57589844 13.49179687 54.15179688 12.71484375 53.71484375 C4.32479835 48.68641921 -1.30181726 41.53592564 -4.34375 32.2265625 C-6.32347536 22.49291281 -6.08760645 12.1185067 -2 3 C-1.34 2.01 -0.68 1.02 0 0 Z " fill="#191822" transform="translate(17,30)"/>
<path d="M0 0 C8.38743291 4.96926676 14.99824785 12.72955658 18.34375 21.9296875 C20.4610835 31.83578351 20.12755562 42.71299986 16 52 C14.293177 49.7811301 12.77866615 47.61692218 11.375 45.1875 C3.31265788 34.3669882 -11.31810921 27.9385839 -23.0625 21.8125 C-28.23611607 19.04007368 -34.2966697 15.40666059 -37 10 C-37.58495822 4.90250696 -37.58495822 4.90250696 -37 2 C-27.04700821 -8.90089577 -11.75674136 -6.38512678 0 0 Z " fill="#191823" transform="translate(70,16)"/>
<path d="M0 0 C3.63 0 7.26 0 11 0 C11.01981934 1.06436279 11.03963867 2.12872559 11.06005859 3.2253418 C11.13630792 7.18586307 11.22499514 11.1460262 11.31738281 15.10620117 C11.35559285 16.81804314 11.39045952 18.52996322 11.421875 20.24194336 C11.46769938 22.70715183 11.52566413 25.17182633 11.5859375 27.63671875 C11.59748871 28.39836838 11.60903992 29.16001801 11.62094116 29.94474792 C11.73353329 34.02674028 12.0593709 37.37001847 14 41 C17.81895449 43.54596966 21.5335235 43.05345363 25.9140625 42.6796875 C28.85871824 41.72019293 29.4795042 40.71363873 31 38 C31.32532355 35.03369583 31.48831358 32.26580897 31.51171875 29.296875 C31.52966995 28.45908508 31.54762115 27.62129517 31.56611633 26.75811768 C31.62019056 24.08879593 31.65410532 21.41965269 31.6875 18.75 C31.72067568 16.93747518 31.75516557 15.1249739 31.79101562 13.3125 C31.87591523 8.87512886 31.94273997 4.43781039 32 0 C35.63 0 39.26 0 43 0 C43.07448116 5.28357911 43.12875795 10.56684863 43.16479492 15.85083008 C43.17982716 17.64613167 43.20025857 19.44139688 43.22631836 21.23657227 C43.26294786 23.82577526 43.2797821 26.41449028 43.29296875 29.00390625 C43.30845261 29.79898087 43.32393646 30.59405548 43.33988953 31.41322327 C43.34184678 37.98014768 42.01157341 42.60785865 37.6875 47.75 C32.48145391 52.10855021 28.27316276 53.41629977 21.5 53.375 C20.2315625 53.38273437 18.963125 53.39046875 17.65625 53.3984375 C12.17281232 52.80088339 8.26170002 50.88920717 4.75 46.625 C4.27046875 46.06039062 3.7909375 45.49578125 3.296875 44.9140625 C-0.17939113 39.78342876 -0.27209589 35.19008393 -0.1953125 29.19921875 C-0.1924826 28.36284378 -0.18965271 27.52646881 -0.18673706 26.66474915 C-0.1755832 24.00551774 -0.15048763 21.34662882 -0.125 18.6875 C-0.11496399 16.87956217 -0.10583923 15.07161904 -0.09765625 13.26367188 C-0.07565959 8.84231688 -0.04116294 4.42121642 0 0 Z " fill="#F5F4F5" transform="translate(263,23)"/>
<path d="M0 0 C3.63 0 7.26 0 11 0 C11.33 9.57 11.66 19.14 12 29 C13.794375 26.89625 15.58875 24.7925 17.4375 22.625 C18.00267334 21.9645166 18.56784668 21.3040332 19.15014648 20.62353516 C21.8528075 17.50322632 21.8528075 17.50322632 24 14 C28.62 14 33.24 14 38 14 C33.95805882 19.59653394 29.64953234 24.6347395 24.85546875 29.60546875 C22.82191968 32.22981734 22.02661063 33.67899382 22 37 C23.37773703 39.06929379 23.37773703 39.06929379 25.5 40.8125 C28.45122807 43.55107368 31.26920727 46.29472194 33.9375 49.3125 C34.50339844 49.94800781 35.06929687 50.58351562 35.65234375 51.23828125 C37 53 37 53 38 56 C26.91196941 57.36910134 26.91196941 57.36910134 22.49609375 54.20703125 C20.4579352 51.89814955 18.69511038 49.56987104 17 47 C16.57074219 46.37351563 16.14148438 45.74703125 15.69921875 45.1015625 C14.78752838 43.74231504 13.89197346 42.37226686 13 41 C12.34 40.67 11.68 40.34 11 40 C11 45.28 11 50.56 11 56 C7.37 56 3.74 56 0 56 C0 37.52 0 19.04 0 0 Z " fill="#ECE7ED" transform="translate(219,20)"/>
<path d="M0 0 C4.74387078 2.70951421 8.08275743 5.79814799 9.7734375 11.12890625 C10.25726547 16.45101391 10.15095666 21.73285707 10.0234375 27.06640625 C10.00334727 28.5279704 9.98510094 29.98956111 9.96875 31.45117188 C9.92494086 35.01097399 9.85605296 38.56976879 9.7734375 42.12890625 C6.1434375 42.12890625 2.5134375 42.12890625 -1.2265625 42.12890625 C-1.24114502 41.30165039 -1.25572754 40.47439453 -1.27075195 39.62207031 C-1.3452211 35.87387744 -1.4418871 32.12657628 -1.5390625 28.37890625 C-1.56162109 27.07695313 -1.58417969 25.775 -1.60742188 24.43359375 C-1.64287109 23.18320312 -1.67832031 21.9328125 -1.71484375 20.64453125 C-1.74102783 19.49243164 -1.76721191 18.34033203 -1.79418945 17.15332031 C-2.26213914 13.88005059 -2.91202608 12.45392992 -5.2265625 10.12890625 C-7.62565033 9.53431121 -7.62565033 9.53431121 -10.2265625 9.69140625 C-11.0928125 9.69269531 -11.9590625 9.69398437 -12.8515625 9.6953125 C-15.65844402 10.20775304 -16.52848968 10.87365328 -18.2265625 13.12890625 C-19.28492911 16.30400607 -19.42900039 18.77173008 -19.54296875 22.109375 C-19.58486328 23.27275391 -19.62675781 24.43613281 -19.66992188 25.63476562 C-19.70923828 26.84970703 -19.74855469 28.06464844 -19.7890625 29.31640625 C-19.83224609 30.54294922 -19.87542969 31.76949219 -19.91992188 33.03320312 C-20.0260934 36.06499006 -20.12814202 39.0968594 -20.2265625 42.12890625 C-23.5265625 42.12890625 -26.8265625 42.12890625 -30.2265625 42.12890625 C-30.2265625 28.26890625 -30.2265625 14.40890625 -30.2265625 0.12890625 C-26.9265625 0.12890625 -23.6265625 0.12890625 -20.2265625 0.12890625 C-20.2265625 1.44890625 -20.2265625 2.76890625 -20.2265625 4.12890625 C-19.2984375 3.48953125 -18.3703125 2.85015625 -17.4140625 2.19140625 C-12.00565799 -1.30814961 -6.12766884 -2.39731606 0 0 Z " fill="#F7F4F7" transform="translate(199.2265625,33.87109375)"/>
<path d="M0 0 C3.3 0 6.6 0 10 0 C10 14.85 10 29.7 10 45 C15.94 45 21.88 45 28 45 C28 47.64 28 50.28 28 53 C18.76 53 9.52 53 0 53 C0 35.51 0 18.02 0 0 Z " fill="#FDFBFC" transform="translate(113,23)"/>
<path d="M0 0 C3.3 0 6.6 0 10 0 C9.99476318 0.94842773 9.98952637 1.89685547 9.98413086 2.87402344 C9.96706655 6.40007131 9.9545389 9.92607515 9.94506836 13.45214844 C9.94004635 14.97689507 9.9332275 16.50163691 9.92456055 18.02636719 C9.91240151 20.22071519 9.90675032 22.4149994 9.90234375 24.609375 C9.89710693 25.92905273 9.89187012 27.24873047 9.88647461 28.60839844 C9.9785393 31.35885586 10.30828613 33.38871067 11 36 C11.0150767 37.58898289 10.97043028 39.17920851 10.87890625 40.765625 C10.83056641 41.65507813 10.78222656 42.54453125 10.73242188 43.4609375 C10.67634766 44.38132813 10.62027344 45.30171875 10.5625 46.25 C10.51029297 47.18585938 10.45808594 48.12171875 10.40429688 49.0859375 C10.27493479 51.39093461 10.13818407 53.69551494 10 56 C6.7 56 3.4 56 0 56 C0 37.52 0 19.04 0 0 Z " fill="#FCFBFC" transform="translate(219,20)"/>
<path d="M0 0 C3.83907512 1.72096471 6.1966601 3.34901837 8.0625 7.18359375 C10.33539472 14.0117483 10.06802271 22.38604786 7.375 29.0625 C4.80580226 33.94669924 1.4777261 36.59372303 -3.3125 39.3125 C-8.184026 40.55870432 -12.70992062 41.08816686 -17.359375 38.87890625 C-19.30883849 37.65876332 -21.17212235 36.39456606 -23 35 C-22.01 34.01 -21.02 33.02 -20 32 C-19.34 32.33 -18.68 32.66 -18 33 C-18 33.99 -18 34.98 -18 36 C-17.34 36 -16.68 36 -16 36 C-16.495 34.515 -16.495 34.515 -17 33 C-15 30 -15 30 -13.16015625 29.375 C-12.46792969 29.25125 -11.77570313 29.1275 -11.0625 29 C-7.87824697 28.30200251 -5.91267859 27.81276263 -4 25 C-2.65235091 20.95705274 -2.42687934 17.22769526 -3 13 C-4.87769142 10.15079947 -4.87769142 10.15079947 -7 8 C-7 7.01 -7 6.02 -7 5 C-5.68 4.67 -4.36 4.34 -3 4 C-3 3.34 -3 2.68 -3 2 C-2.01 2 -1.02 2 0 2 C0 1.34 0 0.68 0 0 Z " fill="#F5F3F5" transform="translate(351,37)"/>
<path d="M0 0 C1.53647825 2.30471737 2.66226759 4.33093476 3.8125 6.8125 C8.53261587 16.23550504 15.99033342 21.86095615 25.83422852 25.39575195 C29.49131882 26.41607644 33.03324383 26.52891145 36.8125 26.5 C37.59568604 26.50008057 38.37887207 26.50016113 39.18579102 26.50024414 C45.1636753 26.35176737 49.70881998 25.01321663 54.93359375 21.99609375 C57 21 57 21 60 22 C60 22.33 60 22.66 60 23 C60.99 23 61.98 23 63 23 C63 23.99 63 24.98 63 26 C60.35177981 27.39633428 57.70644178 28.72449788 55 30 C54.0409375 30.46212891 54.0409375 30.46212891 53.0625 30.93359375 C42.05084341 35.42858638 28.90699267 33.99843967 18.15625 29.609375 C7.43599411 24.14310591 -0.89432374 15.35098731 -5 4 C-4.34 3.34 -3.68 2.68 -3 2 C-2.01 2 -1.02 2 0 2 C0 1.34 0 0.68 0 0 Z " fill="#EFEFF0" transform="translate(13,62)"/>
<path d="M0 0 C3.02508145 1.73602105 5.41790069 3.83580137 7 7 C7.43540712 11.26196588 7.47065428 14.91749516 5.75 18.875 C2.58911245 22.71322059 1.17053337 23.86994074 -3.9375 24.4375 C-7.02759082 24.3109041 -8.09298311 23.94542296 -10.875 22.3125 C-14.06602994 18.83990859 -14.83544047 16.26945921 -15.4375 11.625 C-14.88430661 7.04139766 -13.11516406 4.34172144 -10 1 C-6.77140153 -0.61429923 -3.49006347 -0.59570657 0 0 Z " fill="#050405" transform="translate(342,43)"/>
<path d="M0 0 C3.3 0 6.6 0 10 0 C10 13.86 10 27.72 10 42 C6.7 42 3.4 42 0 42 C0 28.14 0 14.28 0 0 Z " fill="#FDFBFC" transform="translate(148,34)"/>
<path d="M0 0 C3.3 0 6.6 0 10 0 C10 4.59306718 9.96521978 8.53585851 9 13 C9.33 13 9.66 13 10 13 C10 22.57 10 32.14 10 42 C6.7 42 3.4 42 0 42 C0 28.14 0 14.28 0 0 Z " fill="#FCFBFD" transform="translate(169,34)"/>
<path d="M0 0 C0.495 1.98 0.495 1.98 1 4 C1.99 4 2.98 4 4 4 C4.07438973 9.30188966 4.12871511 14.60347268 4.16479492 19.90576172 C4.1798424 21.70789892 4.2002853 23.50999973 4.22631836 25.31201172 C4.26288021 27.90862021 4.27976681 30.50474275 4.29296875 33.1015625 C4.30845261 33.9017984 4.32393646 34.7020343 4.33988953 35.52651978 C4.34163485 41.38297858 3.13887996 45.45278841 -0.71875 50.046875 C-1.3065625 50.60890625 -1.894375 51.1709375 -2.5 51.75 C-3.0878125 52.32234375 -3.675625 52.8946875 -4.28125 53.484375 C-9.56585969 58.14443991 -14.78982119 58.29930376 -21.56640625 58.21875 C-27.01035813 57.72940601 -30.45792364 54.95077748 -34 51 C-32.98873047 51.23783203 -32.98873047 51.23783203 -31.95703125 51.48046875 C-24.10890481 52.85933377 -14.54044689 53.57995874 -7.515625 49.2734375 C-3.84192777 46.18677436 -1.93144112 42.61910448 -1 38 C-0.84861775 35.09331688 -0.74356343 32.20541364 -0.68359375 29.296875 C-0.66281265 28.45908508 -0.64203156 27.62129517 -0.62062073 26.75811768 C-0.5553745 24.08882644 -0.49635642 21.41943902 -0.4375 18.75 C-0.39429106 16.93749016 -0.35067601 15.12498995 -0.30664062 13.3125 C-0.19971871 8.87509791 -0.09838134 4.43759932 0 0 Z " fill="#4D3953" transform="translate(306,23)"/>
<path d="M0 0 C0.87527344 -0.02835938 1.75054687 -0.05671875 2.65234375 -0.0859375 C5.0625 0.375 5.0625 0.375 8.0625 4.375 C4.4325 4.705 0.8025 5.035 -2.9375 5.375 C-2.9375 6.035 -2.9375 6.695 -2.9375 7.375 C-3.5975 7.375 -4.2575 7.375 -4.9375 7.375 C-5.2675 17.275 -5.5975 27.175 -5.9375 37.375 C-9.2375 37.375 -12.5375 37.375 -15.9375 37.375 C-15.9375 36.055 -15.9375 34.735 -15.9375 33.375 C-13.9575 33.375 -11.9775 33.375 -9.9375 33.375 C-9.96106567 32.23285034 -9.96106567 32.23285034 -9.98510742 31.06762695 C-10.04758453 27.6076606 -10.08653172 24.1478131 -10.125 20.6875 C-10.15013672 19.48931641 -10.17527344 18.29113281 -10.20117188 17.05664062 C-10.21083984 15.89970703 -10.22050781 14.74277344 -10.23046875 13.55078125 C-10.2461792 12.48770752 -10.26188965 11.42463379 -10.27807617 10.3293457 C-9.54258311 3.94927289 -6.40152672 0.09400186 0 0 Z " fill="#624E67" transform="translate(188.9375,42.625)"/>
<path d="M0 0 C-5.09586279 7.15419168 -10.78780419 13.78780419 -17 20 C-17 19.34 -17 18.68 -17 18 C-17.99 18.33 -18.98 18.66 -20 19 C-19.67 17.68 -19.34 16.36 -19 15 C-20.98 15 -22.96 15 -25 15 C-24.12201334 13.63034082 -23.23181771 12.26775939 -22.30078125 10.93359375 C-20.93279885 8.95981732 -20.93279885 8.95981732 -19.66796875 6.59765625 C-14.61270025 -1.50357149 -8.97756565 -1.00857534 0 0 Z " fill="#F5F3F6" transform="translate(257,34)"/>
<path d="M0 0 C0.66 0 1.32 0 2 0 C5.60075625 7.55515819 7.54599486 14.10589459 5.375 22.3828125 C3.14462389 28.25746385 -0.35571758 33.06350947 -6 36 C-12.91513917 37.25813289 -18.87342244 36.34176958 -25 33 C-25 32.34 -25 31.68 -25 31 C-24.01 31.33 -23.02 31.66 -22 32 C-15.47153438 32.78547614 -10.42115629 31.77391152 -5 28 C-0.76840203 23.76840203 0.84364627 19.40360738 1.23046875 13.45703125 C1.21628906 12.25433594 1.20210938 11.05164063 1.1875 9.8125 C1.18105469 8.60207031 1.17460937 7.39164063 1.16796875 6.14453125 C1.13785492 2.97160688 1.13785492 2.97160688 0 0 Z " fill="#493550" transform="translate(358,44)"/>
<path d="M0 0 C0.33 1.32 0.66 2.64 1 4 C1.99 4 2.98 4 4 4 C4 17.86 4 31.72 4 46 C0.37 46 -3.26 46 -7 46 C-7 44.68 -7 43.36 -7 42 C-4.69 42 -2.38 42 0 42 C0 28.14 0 14.28 0 0 Z " fill="#5A4660" transform="translate(158,34)"/>
<path d="M0 0 C0.7734375 -0.01417969 1.546875 -0.02835938 2.34375 -0.04296875 C4.5 0.1875 4.5 0.1875 7.5 2.1875 C7.5 3.1775 7.5 4.1675 7.5 5.1875 C6.88125 5.435 6.2625 5.6825 5.625 5.9375 C3.12519797 7.40797178 2.66683978 8.60153076 1.5 11.1875 C0.81292969 11.15269531 0.12585938 11.11789063 -0.58203125 11.08203125 C-1.48308594 11.05496094 -2.38414062 11.02789062 -3.3125 11 C-4.20582031 10.96519531 -5.09914062 10.93039063 -6.01953125 10.89453125 C-8.52821585 10.97372654 -8.52821585 10.97372654 -10.19921875 12.51171875 C-11.36904879 14.01879709 -12.44173037 15.60009556 -13.5 17.1875 C-15.59876543 13.73070988 -15.59876543 13.73070988 -15.125 11.125 C-14.815625 10.1659375 -14.815625 10.1659375 -14.5 9.1875 C-14.5 8.1975 -14.5 7.2075 -14.5 6.1875 C-13.07421875 4.8359375 -13.07421875 4.8359375 -11.1875 3.5625 C-10.26517578 2.92441406 -10.26517578 2.92441406 -9.32421875 2.2734375 C-6.20926317 0.41913846 -3.54901008 0.02957508 0 0 Z " fill="#EFEBEF" transform="translate(192.5,32.8125)"/>
<path d="M0 0 C0.33 1.32 0.66 2.64 1 4 C1.99 4 2.98 4 4 4 C4 17.2 4 30.4 4 44 C8.62 44 13.24 44 18 44 C18 44.33 18 44.66 18 45 C12.06 45 6.12 45 0 45 C0 30.15 0 15.3 0 0 Z " fill="#614E64" transform="translate(123,23)"/>
<path d="M0 0 C0.66 0 1.32 0 2 0 C5.58378022 7.44974787 5.34914503 14.34314326 5.1875 22.5 C5.17396484 23.799375 5.16042969 25.09875 5.14648438 26.4375 C5.11132334 29.62543412 5.06210664 32.81249599 5 36 C1.37 36 -2.26 36 -6 36 C-6 34.68 -6 33.36 -6 32 C-3.69 32 -1.38 32 1 32 C0.67 21.44 0.34 10.88 0 0 Z " fill="#402B47" transform="translate(208,44)"/>
<path d="M0 0 C5.69021568 5.69021568 6.04473377 14.78881806 6.0625 22.375 C6.04653244 24.25004775 6.02730462 26.12508307 6 28 C4.48046875 26.66796875 4.48046875 26.66796875 3 25 C3.3125 22.3125 3.3125 22.3125 4 20 C3.01 19.67 2.02 19.34 1 19 C0.67 21.97 0.34 24.94 0 28 C-0.33 28 -0.66 28 -1 28 C-1.03738281 27.01 -1.07476562 26.02 -1.11328125 25 C-1.38733691 16.47624324 -1.38733691 16.47624324 -3.625 8.3125 C-5.05206892 4.87456124 -5.08046093 4.30621046 -4 1 C-3.01 1 -2.02 1 -1 1 C-0.67 0.67 -0.34 0.34 0 0 Z " fill="#E6E6E7" transform="translate(90,28)"/>
<path d="M0 0 C1.32 0 2.64 0 4 0 C4 12.54 4 25.08 4 38 C0.62651537 34.62651537 0.04851043 33.40075184 -0.11352539 28.72192383 C-0.11336756 27.38361586 -0.10774745 26.04530118 -0.09765625 24.70703125 C-0.0962413 24.00100266 -0.09482635 23.29497406 -0.09336853 22.56755066 C-0.08777764 20.31582374 -0.07522688 18.06419679 -0.0625 15.8125 C-0.05748382 14.28450665 -0.05292112 12.75651173 -0.04882812 11.22851562 C-0.0378112 7.48563865 -0.02055287 3.74283627 0 0 Z " fill="#3C2B45" transform="translate(274,27)"/>
<path d="M0 0 C1.65 0.99 3.3 1.98 5 3 C4.67 11.58 4.34 20.16 4 29 C0.37 29 -3.26 29 -7 29 C-7 27.68 -7 26.36 -7 25 C-4.69 25 -2.38 25 0 25 C0 16.75 0 8.5 0 0 Z " fill="#533D57" transform="translate(327,71)"/>
<path d="M0 0 C2.31 0.33 4.62 0.66 7 1 C1.63559144 8.5995788 -4.63475319 15.24336261 -11 22 C-11.99 21.34 -12.98 20.68 -14 20 C-13.67681641 14.61697325 -10.58442558 11.95886842 -7 8.3125 C-3.05550269 4.48513403 -3.05550269 4.48513403 0 0 Z " fill="#4D3753" transform="translate(254,37)"/>
<path d="M0 0 C4.247192 0.47732204 6.01721296 2.8251592 8.75 5.9375 C9.54921875 6.83339844 10.3484375 7.72929688 11.171875 8.65234375 C13 11 13 11 13 13 C1.52667984 13.90711462 1.52667984 13.90711462 -2.01171875 11.8046875 C-3.375 10.25 -3.375 10.25 -5 7 C-4.8125 4.625 -4.8125 4.625 -4 3 C-2.02 3.495 -2.02 3.495 0 4 C0 2.68 0 1.36 0 0 Z " fill="#F6F5F5" transform="translate(244,63)"/>
<path d="M0 0 C2 2 2 2 2.3125 5.4375 C2 9 2 9 0.875 10.9375 C-1.88980433 12.50422245 -3.88188517 12.38976435 -7 12 C-8.875 10.9375 -8.875 10.9375 -10 9 C-10.4375 5.5 -10.4375 5.5 -10 2 C-7.00303875 -1.6885677 -4.34072074 -1.22672543 0 0 Z " fill="#EAE8E9" transform="translate(157,17)"/>
<path d="M0 0 C1.32 0 2.64 0 4 0 C4 2.64 4 5.28 4 8 C-5.24 8 -14.48 8 -24 8 C-24 6.68 -24 5.36 -24 4 C-16.08 4 -8.16 4 0 4 C0 2.68 0 1.36 0 0 Z " fill="#46334C" transform="translate(141,72)"/>
<path d="M0 0 C2.5 2 2.5 2 4 4 C3.39671875 4.02578125 2.7934375 4.0515625 2.171875 4.078125 C-3.04453897 4.4034799 -3.04453897 4.4034799 -7.5 6.9375 C-9.80205868 10.10283068 -10.2155353 12.25882195 -10.5625 16.125 C-10.68818359 17.49011719 -10.68818359 17.49011719 -10.81640625 18.8828125 C-10.87699219 19.58148438 -10.93757813 20.28015625 -11 21 C-14.13410672 18.1384243 -14.88252575 16.01811013 -15.375 11.75 C-14.90550525 7.05505254 -13.17804115 4.40917142 -10 1 C-6.81225917 -0.59387042 -3.46072041 -0.52663137 0 0 Z " fill="#4D3253" transform="translate(342,43)"/>
<path d="M0 0 C0.66 0 1.32 0 2 0 C2.39832031 0.47050781 2.79664063 0.94101563 3.20703125 1.42578125 C5.82406493 3.72352542 8.27435026 3.7481837 11.6875 4.1875 C12.86699219 4.34605469 14.04648437 4.50460938 15.26171875 4.66796875 C16.16535156 4.77753906 17.06898438 4.88710937 18 5 C18 5.33 18 5.66 18 6 C15.89590361 6.02701408 13.79170822 6.04640223 11.6875 6.0625 C10.51574219 6.07410156 9.34398437 6.08570312 8.13671875 6.09765625 C5 6 5 6 2 5 C2 12.26 2 19.52 2 27 C-1.3 27 -4.6 27 -8 27 C-7.67 26.34 -7.34 25.68 -7 25 C-4.69 25 -2.38 25 0 25 C0 16.75 0 8.5 0 0 Z " fill="#110415" transform="translate(331,75)"/>
<path d="M0 0 C0.99 0.33 1.98 0.66 3 1 C4.27603607 4.82810821 3.86283987 8.23475107 3.5625 12.1875 C3.51029297 12.93708984 3.45808594 13.68667969 3.40429688 14.45898438 C3.27486216 16.30637082 3.13813482 18.15324371 3 20 C-0.3 20 -3.6 20 -7 20 C-7 18.68 -7 17.36 -7 16 C-4.69 16 -2.38 16 0 16 C0 10.72 0 5.44 0 0 Z " fill="#453249" transform="translate(230,60)"/>
<path d="M0 0 C0.33 0 0.66 0 1 0 C1 6.27 1 12.54 1 19 C-2.3 19 -5.6 19 -9 19 C-9 17.68 -9 16.36 -9 15 C-6.69 15 -4.38 15 -2 15 C-2.02320313 14.16855469 -2.04640625 13.33710937 -2.0703125 12.48046875 C-2.08835938 11.39378906 -2.10640625 10.30710937 -2.125 9.1875 C-2.14820313 8.10855469 -2.17140625 7.02960938 -2.1953125 5.91796875 C-2 3 -2 3 0 0 Z " fill="#47334C" transform="translate(182,61)"/>
<path d="M0 0 C0.99 0 1.98 0 3 0 C3.28358537 3.76909924 3.52107447 7.53971756 3.75 11.3125 C3.83121094 12.38435547 3.91242188 13.45621094 3.99609375 14.56054688 C4.05410156 15.58857422 4.11210937 16.61660156 4.171875 17.67578125 C4.2347168 18.62364502 4.29755859 19.57150879 4.36230469 20.5480957 C4 23 4 23 0 26 C0 17.42 0 8.84 0 0 Z " fill="#47344B" transform="translate(230,24)"/>
<path d="M0 0 C2.31 0 4.62 0 7 0 C7.33 0.66 7.66 1.32 8 2 C7.06553465 4.03144641 6.06775224 6.03533587 5 8 C3.35333797 7.8864371 1.70763918 7.75882619 0.0625 7.625 C-1.31228516 7.52058594 -1.31228516 7.52058594 -2.71484375 7.4140625 C-3.84599609 7.20910156 -3.84599609 7.20910156 -5 7 C-5.33 6.34 -5.66 5.68 -6 5 C-5.195625 4.54625 -4.39125 4.0925 -3.5625 3.625 C-0.91143428 2.25274335 -0.91143428 2.25274335 0 0 Z " fill="#FCFAFC" transform="translate(187,34)"/>
<path d="M0 0 C2.80497953 2.27904587 3.89925211 3.4514837 4.5625 7.0625 C4 10 4 10 1.8125 11.9375 C-1.39901014 13.15073716 -2.8089019 13.20744252 -6 12 C-6.66 11.01 -7.32 10.02 -8 9 C-4.535 8.505 -4.535 8.505 -1 8 C-0.67 5.36 -0.34 2.72 0 0 Z " fill="#533F5A" transform="translate(159,20)"/>
<path d="M0 0 C0.33 0 0.66 0 1 0 C1 8.25 1 16.5 1 25 C-2.63 25 -6.26 25 -10 25 C-10 23.68 -10 22.36 -10 21 C-3.25 20.875 -3.25 20.875 -1 22 C-1.00523682 21.36908447 -1.01047363 20.73816895 -1.01586914 20.08813477 C-1.03657826 17.24626653 -1.04964066 14.40441412 -1.0625 11.5625 C-1.07087891 10.56927734 -1.07925781 9.57605469 -1.08789062 8.55273438 C-1.09111328 7.60849609 -1.09433594 6.66425781 -1.09765625 5.69140625 C-1.10289307 4.81685791 -1.10812988 3.94230957 -1.11352539 3.04125977 C-1 1 -1 1 0 0 Z " fill="#412C46" transform="translate(330,75)"/>
<path d="M0 0 C0 0.66 0 1.32 0 2 C-4.62 2 -9.24 2 -14 2 C-14.66 0.68 -15.32 -0.64 -16 -2 C-14.08591243 -2.24979445 -12.16848389 -2.47408014 -10.25 -2.6875 C-9.18265625 -2.81511719 -8.1153125 -2.94273438 -7.015625 -3.07421875 C-3.58339372 -2.98974674 -2.37601298 -2.42791617 0 0 Z " fill="#42334A" transform="translate(261,78)"/>
<path d="M0 0 C1.4370809 -0.05422947 2.87475462 -0.09289723 4.3125 -0.125 C5.11300781 -0.14820313 5.91351563 -0.17140625 6.73828125 -0.1953125 C9 0 9 0 12 2 C12 2.99 12 3.98 12 5 C11.38125 5.2475 10.7625 5.495 10.125 5.75 C7.64931313 7.20628639 7.04874998 8.37812506 6 11 C3.36 10.67 0.72 10.34 -2 10 C-2 9.67 -2 9.34 -2 9 C-0.02 8.67 1.96 8.34 4 8 C4.66 6.02 5.32 4.04 6 2 C3.03 1.505 3.03 1.505 0 1 C0 0.67 0 0.34 0 0 Z " fill="#DFDCDE" transform="translate(188,33)"/>
<path d="M0 0 C2.31 0.33 4.62 0.66 7 1 C6.06862408 2.29608947 5.1296434 3.58671632 4.1875 4.875 C3.66542969 5.59429687 3.14335937 6.31359375 2.60546875 7.0546875 C1 9 1 9 -2 11 C-4 8 -4 8 -3.8125 6.0625 C-2.87858188 3.69178476 -1.61172061 1.96209466 0 0 Z " fill="#4B3753" transform="translate(254,37)"/>
<path d="M0 0 C0.87527344 -0.02835938 1.75054687 -0.05671875 2.65234375 -0.0859375 C5.0625 0.375 5.0625 0.375 8.0625 4.375 C4.4325 4.705 0.8025 5.035 -2.9375 5.375 C-2.9375 4.715 -2.9375 4.055 -2.9375 3.375 C-3.9275 3.375 -4.9175 3.375 -5.9375 3.375 C-6.2675 4.695 -6.5975 6.015 -6.9375 7.375 C-7.0625 5 -7.0625 5 -6.9375 2.375 C-4.43686853 -0.12563147 -3.45938302 0.05079858 0 0 Z " fill="#422D46" transform="translate(188.9375,42.625)"/>
<path d="M0 0 C2.97 0.495 2.97 0.495 6 1 C6 1.66 6 2.32 6 3 C6.99 3.33 7.98 3.66 9 4 C9 4.66 9 5.32 9 6 C9.66 6.33 10.32 6.66 11 7 C11 7.66 11 8.32 11 9 C5.37082652 8.59791618 2.99613521 6.71069698 -1 3 C-0.67 2.01 -0.34 1.02 0 0 Z " fill="#F6F6F7" transform="translate(23,82)"/>
<path d="M0 0 C0.99 0.33 1.98 0.66 3 1 C2.34 5.62 1.68 10.24 1 15 C-2.46754028 11.53245972 -2.91261307 10.24526371 -3.25 5.4375 C-3.1675 4.303125 -3.085 3.16875 -3 2 C-2.01 1.34 -1.02 0.68 0 0 Z " fill="#4A2F4D" transform="translate(330,49)"/>
<path d="M0 0 C0.66 0 1.32 0 2 0 C2 2.64 2 5.28 2 8 C-1.3 8 -4.6 8 -8 8 C-8 6.68 -8 5.36 -8 4 C-4.535 3.505 -4.535 3.505 -1 3 C-0.67 2.01 -0.34 1.02 0 0 Z " fill="#47324D" transform="translate(210,72)"/>
<path d="M0 0 C1.32 0.66 2.64 1.32 4 2 C3.67 3.32 3.34 4.64 3 6 C3.33 6 3.66 6 4 6 C4 8.31 4 10.62 4 13 C3.34 13 2.68 13 2 13 C2 12.34 2 11.68 2 11 C1.01 10.67 0.02 10.34 -1 10 C-1.02689216 8.52093108 -1.04634621 7.04172517 -1.0625 5.5625 C-1.07410156 4.73878906 -1.08570312 3.91507813 -1.09765625 3.06640625 C-1 1 -1 1 0 0 Z " fill="#FCFCFD" transform="translate(91,46)"/>
<path d="M0 0 C1.00546875 0.24363281 1.00546875 0.24363281 2.03125 0.4921875 C5.56288679 1.09628327 8.91755834 1.13216488 12.5 1.125 C13.7890625 1.12757812 15.078125 1.13015625 16.40625 1.1328125 C19.42209033 1.02135753 22.07792088 0.70804225 25 0 C24.67 0.66 24.34 1.32 24 2 C23.01 2.33 22.02 2.66 21 3 C20.67 3.66 20.34 4.32 20 5 C17.03 4.505 17.03 4.505 14 4 C14 4.33 14 4.66 14 5 C4.82713348 4.64989059 4.82713348 4.64989059 1.375 1.9375 C0.92125 1.298125 0.4675 0.65875 0 0 Z " fill="#5B4C61" transform="translate(272,74)"/>
<path d="M0 0 C0.77085937 -0.00257812 1.54171875 -0.00515625 2.3359375 -0.0078125 C6.000986 0.20483537 7.98601762 0.48601762 10.625 3.125 C4.20483555 4.83704385 -3.39126651 5.31632453 -9.375 2.125 C-8.385 1.795 -7.395 1.465 -6.375 1.125 C-4.03562093 -0.04468953 -2.60130632 -0.00864221 0 0 Z " fill="#35243A" transform="translate(286.375,76.875)"/>
<path d="M0 0 C3.99996286 1.33332095 4.83782337 3.4957827 7 7 C5.35 7.33 3.7 7.66 2 8 C1.67 10.64 1.34 13.28 1 16 C0.67 16 0.34 16 0 16 C0 10.72 0 5.44 0 0 Z " fill="#1D1322" transform="translate(233,64)"/>
<path d="M0 0 C0.33 0 0.66 0 1 0 C1.18319769 4.03034912 0.94065076 6.48257051 -1 10 C-1 10.99 -1 11.98 -1 13 C-1.99 13 -2.98 13 -4 13 C-4 11.68 -4 10.36 -4 9 C-7.63 9 -11.26 9 -15 9 C-13.68 8.67 -12.36 8.34 -11 8 C-10.67 7.34 -10.34 6.68 -10 6 C-8.88625 6.309375 -8.88625 6.309375 -7.75 6.625 C-5.06006947 7.17639127 -5.06006947 7.17639127 -2.75 6.375 C-0.74412123 5.0755421 -0.74412123 5.0755421 -0.25 2.375 C-0.1675 1.59125 -0.085 0.8075 0 0 Z " fill="#170E1A" transform="translate(163,25)"/>
<path d="M0 0 C2.4375 0.8125 2.4375 0.8125 5 2 C5.33 2.99 5.66 3.98 6 5 C6.33 4.01 6.66 3.02 7 2 C7 3.98 7 5.96 7 8 C3.09161134 8 1.88405893 6.49432124 -1 4 C-0.67 2.68 -0.34 1.36 0 0 Z " fill="#23232B" transform="translate(23,74)"/>
<path d="M0 0 C0.66 0 1.32 0 2 0 C4.4591487 4.9182974 4.58902946 11.85831506 3.1875 17.125 C2 20 2 20 0 21 C0.165 20.38125 0.33 19.7625 0.5 19.125 C1.5201466 12.74908377 1.33044041 6.31959197 0 0 Z " fill="#0D0212" transform="translate(362,48)"/>
<path d="M0 0 C1.32 0 2.64 0 4 0 C4 2.64 4 5.28 4 8 C2.35 7.67 0.7 7.34 -1 7 C-0.67 4.69 -0.34 2.38 0 0 Z " fill="#402C49" transform="translate(141,72)"/>
<path d="M0 0 C1.6168484 3.23369679 0.00851816 6.30628257 -0.9375 9.625 C-1.13279297 10.33140625 -1.32808594 11.0378125 -1.52929688 11.765625 C-2.01314492 13.51219844 -2.50575123 15.25634124 -3 17 C-3.33 17 -3.66 17 -4 17 C-4.44534366 10.04769059 -4.67289916 5.40303965 0 0 Z " fill="#140716" transform="translate(335,48)"/>
<path d="M0 0 C0.99 0.33 1.98 0.66 3 1 C2.01 1.66 1.02 2.32 0 3 C0.99 3 1.98 3 3 3 C3.66 2.34 4.32 1.68 5 1 C5.3125 3.1875 5.3125 3.1875 5 6 C2.5 8.8125 2.5 8.8125 0 11 C-0.66 10.67 -1.32 10.34 -2 10 C-0.68 8.68 0.64 7.36 2 6 C0.35 5.67 -1.3 5.34 -3 5 C-1.125 1.125 -1.125 1.125 0 0 Z " fill="#140E18" transform="translate(258,33)"/>
<path d="M0 0 C0.33 0.99 0.66 1.98 1 3 C-0.3125 4.5 -0.3125 4.5 -2 6 C-2.99 6 -3.98 6 -5 6 C-5.33 7.32 -5.66 8.64 -6 10 C-7.65 10.33 -9.3 10.66 -11 11 C-8.44108186 6.73513643 -6.3997903 4.31567911 -2 2 C-1.34 1.34 -0.68 0.68 0 0 Z " fill="#0C030E" transform="translate(262,39)"/>
<path d="M0 0 C0.33 0.99 0.66 1.98 1 3 C-0.21484375 5.04296875 -0.21484375 5.04296875 -1.9375 7.1875 C-2.50339844 7.90292969 -3.06929687 8.61835937 -3.65234375 9.35546875 C-4.09707031 9.89816406 -4.54179687 10.44085938 -5 11 C-5.66 10.67 -6.32 10.34 -7 10 C-5.33248852 6.05860922 -2.77289351 3.2107188 0 0 Z " fill="#120716" transform="translate(250,50)"/>
<path d="M0 0 C3.91211733 1.15585285 6.8745041 2.35534962 10 5 C9.01 5.99 8.02 6.98 7 8 C6.34 7.67 5.68 7.34 5 7 C5.66 6.01 6.32 5.02 7 4 C6.21625 4.20625 5.4325 4.4125 4.625 4.625 C3.75875 4.74875 2.8925 4.8725 2 5 C1.34 4.34 0.68 3.68 0 3 C0 2.01 0 1.02 0 0 Z " fill="#23232A" transform="translate(62,13)"/>
<path d="M0 0 C2.475 0.495 2.475 0.495 5 1 C5.33 2.98 5.66 4.96 6 7 C3 7 3 7 1.3125 5.75 C0 4 0 4 0 0 Z " fill="#20202A" transform="translate(64,42)"/>
<path d="M0 0 C0.99 0.66 1.98 1.32 3 2 C2.34 2 1.68 2 1 2 C0.34 3.65 -0.32 5.3 -1 7 C-2.32 6.67 -3.64 6.34 -5 6 C-3.86695008 2.60085025 -2.87481525 1.94745549 0 0 Z " fill="#F8FAF8" transform="translate(152,17)"/>
<path d="M0 0 C0.66 0.99 1.32 1.98 2 3 C2 2.34 2 1.68 2 1 C2.66 1.33 3.32 1.66 4 2 C3.34 3.32 2.68 4.64 2 6 C0.35 6 -1.3 6 -3 6 C-3 4.68 -3 3.36 -3 2 C-2.01 1.34 -1.02 0.68 0 0 Z " fill="#51385B" transform="translate(350,74)"/>
<path d="M0 0 C2.31 1.98 4.62 3.96 7 6 C6.34 6.66 5.68 7.32 5 8 C2 7 2 7 0.25 4.5625 C-0.1625 3.716875 -0.575 2.87125 -1 2 C-0.67 1.34 -0.34 0.68 0 0 Z " fill="#110E16" transform="translate(269,71)"/>
<path d="M0 0 C2 1.375 2 1.375 4 3 C4 3.66 4 4.32 4 5 C1.69 5 -0.62 5 -3 5 C-3.33 4.34 -3.66 3.68 -4 3 C-3.34 2.34 -2.68 1.68 -2 1 C-1.34 1.33 -0.68 1.66 0 2 C0 1.34 0 0.68 0 0 Z " fill="#F0E9F1" transform="translate(253,71)"/>
<path d="M0 0 C0.99 0.33 1.98 0.66 3 1 C4 4 4 4 3.1875 6.0625 C2 8 2 8 0 10 C0 6.7 0 3.4 0 0 Z " fill="#4D4054" transform="translate(230,60)"/>
<path d="M0 0 C0.66 0 1.32 0 2 0 C3.15837626 4.05431692 2.83691257 6.21812119 1 10 C-0.89213369 7.61426621 -2.02391783 5.92824652 -3 3 C-1.68 3 -0.36 3 1 3 C0.67 2.01 0.34 1.02 0 0 Z " fill="#252428" transform="translate(85,58)"/>
<path d="M0 0 C2.49505962 2.49505962 2.35948376 3.67328888 2.625 7.125 C2.69976562 8.03507812 2.77453125 8.94515625 2.8515625 9.8828125 C2.92503906 10.93082031 2.92503906 10.93082031 3 12 C0.37482727 9.75590073 -0.42089541 8.30528247 -0.75 4.875 C-0.8325 3.59625 -0.915 2.3175 -1 1 C-0.67 0.67 -0.34 0.34 0 0 Z " fill="#4E4354" transform="translate(275,53)"/>
<path d="M0 0 C0.99 0.33 1.98 0.66 3 1 C1.02 3.31 -0.96 5.62 -3 8 C-3.99 7.01 -4.98 6.02 -6 5 C-5.67 4.34 -5.34 3.68 -5 3 C-4.34 3.33 -3.68 3.66 -3 4 C-2.67 3.34 -2.34 2.68 -2 2 C-1.34 1.34 -0.68 0.68 0 0 Z " fill="#442C4A" transform="translate(256,40)"/>
<path d="M0 0 C0.99 0.33 1.98 0.66 3 1 C2.25 5.75 2.25 5.75 0 8 C-0.99 7.01 -1.98 6.02 -3 5 C-2.01 3.35 -1.02 1.7 0 0 Z " fill="#EAEBEB" transform="translate(73,11)"/>
<path d="M0 0 C0.86625 0.556875 0.86625 0.556875 1.75 1.125 C0.625 2.6875 0.625 2.6875 -1.25 4.125 C-4.4375 3.8125 -4.4375 3.8125 -7.25 3.125 C-5.61609754 -0.14280491 -3.47460528 -1.35123539 0 0 Z " fill="#472E4E" transform="translate(299.25,74.875)"/>
<path d="M0 0 C0.33 0 0.66 0 1 0 C1 1.98 1 3.96 1 6 C1.99 6 2.98 6 4 6 C4 8.31 4 10.62 4 13 C1.7522025 10.94766315 0.9977758 9.99332739 0 7 C-0.03954234 4.66700175 -0.04401732 2.33291811 0 0 Z " fill="#5B4B5D" transform="translate(327,51)"/>
<path d="M0 0 C0.99 0.33 1.98 0.66 3 1 C3 3.31 3 5.62 3 8 C1.68 7.34 0.36 6.68 -1 6 C-0.67 4.02 -0.34 2.04 0 0 Z " fill="#F7F4F6" transform="translate(156,18)"/>
<path d="M0 0 C0.99 0.33 1.98 0.66 3 1 C2.1875 3.4375 2.1875 3.4375 1 6 C0.01 6.33 -0.98 6.66 -2 7 C-2 5.02 -2 3.04 -2 1 C-1.34 0.67 -0.68 0.34 0 0 Z " fill="#432B4A" transform="translate(359,67)"/>
<path d="M0 0 C2.875 0.3125 2.875 0.3125 6 1 C6.66 1.99 7.32 2.98 8 4 C5.69 4 3.38 4 1 4 C0.67 2.68 0.34 1.36 0 0 Z " fill="#443048" transform="translate(338,43)"/>
<path d="M0 0 C0.99 0 1.98 0 3 0 C3.66 1.65 4.32 3.3 5 5 C3.02 5.99 3.02 5.99 1 7 C0.31292445 4.50935112 0 2.62113708 0 0 Z " fill="#24252C" transform="translate(81,29)"/>
<path d="M0 0 C1.175625 0.0825 2.35125 0.165 3.5625 0.25 C4.2225 1.24 4.8825 2.23 5.5625 3.25 C2.79985711 3.84732819 0.40217231 4.25 -2.4375 4.25 C-3.0975 3.26 -3.7575 2.27 -4.4375 1.25 C-3.4375 0.25 -3.4375 0.25 0 0 Z " fill="#E4E4E3" transform="translate(22.4375,79.75)"/>
<path d="M0 0 C3.26460973 1.80412643 4.88929795 2.83394693 7 6 C6.01 6 5.02 6 4 6 C3.34 5.34 2.68 4.68 2 4 C-0.58354218 3.83312552 -0.58354218 3.83312552 -3 4 C-2.67 3.34 -2.34 2.68 -2 2 C-1.34 2 -0.68 2 0 2 C0 1.34 0 0.68 0 0 Z " fill="#25252D" transform="translate(61,65)"/>
<path d="M0 0 C2.875 -0.125 2.875 -0.125 6 0 C6.66 0.66 7.32 1.32 8 2 C7.01 2 6.02 2 5 2 C4.67 2.66 4.34 3.32 4 4 C2.68 4 1.36 4 0 4 C0 2.68 0 1.36 0 0 Z " fill="#3D2D42" transform="translate(151,76)"/>
<path d="M0 0 C1.98 0.66 3.96 1.32 6 2 C6 2.66 6 3.32 6 4 C5.34 4 4.68 4 4 4 C3.67 4.99 3.34 5.98 3 7 C0 3.375 0 3.375 0 0 Z " fill="#EFF0ED" transform="translate(265,63)"/>
<path d="M0 0 C-1.39332574 3.36720387 -2.9789286 4.9859524 -6 7 C-6 5.02 -6 3.04 -6 1 C-3.92446352 0.4465236 -2.15634036 0 0 0 Z " fill="#1D151D" transform="translate(239,39)"/>
<path d="M0 0 C1.0625 1.875 1.0625 1.875 2 4 C1.67 4.66 1.34 5.32 1 6 C0.34 5.67 -0.32 5.34 -1 5 C-1.625 2.9375 -1.625 2.9375 -2 1 C-1.34 0.67 -0.68 0.34 0 0 Z M-5 4 C-4.01 4.33 -3.02 4.66 -2 5 C-2.66 5.66 -3.32 6.32 -4 7 C-4.33 6.01 -4.66 5.02 -5 4 Z " fill="#24242D" transform="translate(21,65)"/>
<path d="M0 0 C0.66 0.99 1.32 1.98 2 3 C1.34 4.32 0.68 5.64 0 7 C-0.33 6.01 -0.66 5.02 -1 4 C-2.32 4.33 -3.64 4.66 -5 5 C-4.34 4.01 -3.68 3.02 -3 2 C-2.01 2 -1.02 2 0 2 C0 1.34 0 0.68 0 0 Z " fill="#E2E2E3" transform="translate(13,62)"/>
<path d="M0 0 C1.70884005 1.62339805 3.37446717 3.29319053 5 5 C5 5.66 5 6.32 5 7 C3.35 6.67 1.7 6.34 0 6 C0 4.02 0 2.04 0 0 Z " fill="#131219" transform="translate(33,20)"/>
<path d="M0 0 C0 3.10551666 -0.5393715 4.35261084 -2 7 C-3.32 7 -4.64 7 -6 7 C-6 6.34 -6 5.68 -6 5 C-4.04072937 3.2856382 -2.04119788 1.61594832 0 0 Z " fill="#110616" transform="translate(359,73)"/>
<path d="M0 0 C3.91402949 1.26941497 5.79072873 2.51167694 8 6 C4.65750371 5.40312566 2.53563658 4.26396123 0 2 C0 1.34 0 0.68 0 0 Z " fill="#EEEEF1" transform="translate(61,63)"/>
<path d="M0 0 C0.66 0.99 1.32 1.98 2 3 C1.67 3.66 1.34 4.32 1 5 C-1.0625 5.625 -1.0625 5.625 -3 6 C-3.33 5.34 -3.66 4.68 -4 4 C-3.67 3.01 -3.34 2.02 -3 1 C-2.01 0.67 -1.02 0.34 0 0 Z " fill="#513959" transform="translate(361,63)"/>
<path d="M0 0 C0 0.66 0 1.32 0 2 C0.99 1.67 1.98 1.34 3 1 C2.67 2.32 2.34 3.64 2 5 C0.35 4.67 -1.3 4.34 -3 4 C-3.33 3.01 -3.66 2.02 -4 1 C-2 0 -2 0 0 0 Z " fill="#121118" transform="translate(75,48)"/>
<path d="M0 0 C0.33 0.66 0.66 1.32 1 2 C1.66 2.33 2.32 2.66 3 3 C3 3.99 3 4.98 3 6 C2.01 6 1.02 6 0 6 C0 5.34 0 4.68 0 4 C-0.99 3.67 -1.98 3.34 -3 3 C-2.01 2.01 -1.02 1.02 0 0 Z " fill="#5B4464" transform="translate(249,43)"/>
<path d="M0 0 C0.66 0.33 1.32 0.66 2 1 C1.34 2.65 0.68 4.3 0 6 C-3 6 -3 6 -5 5 C-3.35 3.35 -1.7 1.7 0 0 Z " fill="#0D0D0D" transform="translate(85,79)"/>
<path d="M0 0 C0.66 0.33 1.32 0.66 2 1 C2 1.99 2 2.98 2 4 C2.66 4.33 3.32 4.66 4 5 C3.01 5.33 2.02 5.66 1 6 C-0.32 4.68 -1.64 3.36 -3 2 C-2.01 1.34 -1.02 0.68 0 0 Z " fill="#EEE6EF" transform="translate(331,69)"/>
<path d="M0 0 C0.66 0.33 1.32 0.66 2 1 C2.75 3.375 2.75 3.375 3 6 C2.01 7.485 2.01 7.485 1 9 C-1.09230769 4.56923077 -1.09230769 4.56923077 -0.625 1.6875 C-0.41875 1.130625 -0.2125 0.57375 0 0 Z " fill="#593E60" transform="translate(305,61)"/>
<path d="M0 0 C1.5 1.375 1.5 1.375 3 3 C3 3.66 3 4.32 3 5 C1.35 5.33 -0.3 5.66 -2 6 C-2 3 -2 3 0 0 Z " fill="#543958" transform="translate(331,45)"/>
<path d="M0 0 C3.3 0 6.6 0 10 0 C8.68 0.33 7.36 0.66 6 1 C6 1.66 6 2.32 6 3 C5.01 3 4.02 3 3 3 C3 2.34 3 1.68 3 1 C1.68 1.33 0.36 1.66 -1 2 C-0.67 1.34 -0.34 0.68 0 0 Z " fill="#554159" transform="translate(184,43)"/>
<path d="M0 0 C2.31 0 4.62 0 7 0 C7 0.99 7 1.98 7 3 C6.01 3.33 5.02 3.66 4 4 C2.68 2.68 1.36 1.36 0 0 Z " fill="#403245" transform="translate(151,29)"/>
<path d="M0 0 C4 0 4 0 5.75 1.5 C6.1625 1.995 6.575 2.49 7 3 C6.67 3.99 6.34 4.98 6 6 C3.97945196 4.35830472 1.97956942 2.69088222 0 1 C0 0.67 0 0.34 0 0 Z " fill="#222225" transform="translate(34,27)"/>
<path d="M0 0 C1.32 0 2.64 0 4 0 C4.33 1.32 4.66 2.64 5 4 C4.34 4 3.68 4 3 4 C3.33 4.99 3.66 5.98 4 7 C3.34 7 2.68 7 2 7 C0.5393715 4.35261084 0 3.10551666 0 0 Z " fill="#111017" transform="translate(35,16)"/>
<path d="M0 0 C2.475 0.99 2.475 0.99 5 2 C4.67 3.98 4.34 5.96 4 8 C1.44971017 6.72485508 1.06918289 5.59658703 0 3 C0 2.01 0 1.02 0 0 Z " fill="#212229" transform="translate(39,52)"/>
<path d="M0 0 C1.65 1.32 3.3 2.64 5 4 C4.01 4.99 3.02 5.98 2 7 C2 6.01 2 5.02 2 4 C0.68 3.34 -0.64 2.68 -2 2 C-1.34 2 -0.68 2 0 2 C0 1.34 0 0.68 0 0 Z " fill="#27262E" transform="translate(26,43)"/>
<path d="M0 0 C1.98 1.65 3.96 3.3 6 5 C5.67 5.66 5.34 6.32 5 7 C2.5 5.1875 2.5 5.1875 0 3 C0 2.01 0 1.02 0 0 Z " fill="#E3E0E2" transform="translate(352,37)"/>
</svg>
